<?xml version="1.0" standalone="no"?><!DOCTYPE svg PUBLIC "-//W3C//DTD SVG 1.1//EN" "http://www.w3.org/Graphics/SVG/1.1/DTD/svg11.dtd"><svg t="1642478169898" class="icon" viewBox="0 0 1194 1024" version="1.1" xmlns="http://www.w3.org/2000/svg" p-id="1320" xmlns:xlink="http://www.w3.org/1999/xlink" width="233.203125" height="200"><defs><style type="text/css"></style></defs><path d="M145.002566 10.988662a38.651425 38.651425 0 0 0-54.178883 0.286661 37.504782 37.504782 0 0 0 0 53.318901l958.45024 948.32156a38.221434 38.221434 0 0 0 36.931461 9.555359 37.743666 37.743666 0 0 0 17.247422-63.208697z" p-id="1321"></path><path d="M567.253861 770.30523a223.547613 223.547613 0 0 1-212.558951-319.196752L222.066533 317.906779A1743.852937 1743.852937 0 0 0 10.510894 520.05039a39.3203 39.3203 0 0 0-0.238884 52.936686c161.198899 178.207437 303.382634 331.666496 546.232072 331.666496a478.675687 478.675687 0 0 0 204.628004-47.776793l-108.166659-108.166659a225.888676 225.888676 0 0 1-85.711566 21.59511z" p-id="1322"></path><path d="M1184.100033 502.229646a38.985863 38.985863 0 0 0 1.242196-51.455606c-130.000653-157.663416-310.262492-331.379835-548.19092-331.379835a465.393739 465.393739 0 0 0-203.863575 47.251248l108.644427 108.644427a219.056595 219.056595 0 0 1 85.281575-21.404003 223.547613 223.547613 0 0 1 212.558951 319.196753l133.010591 133.010591a1644.524985 1644.524985 0 0 0 211.316755-203.863575z" p-id="1323"></path><path d="M433.622171 531.803481a159.717818 159.717818 0 0 0 146.43587 146.43587 155.417907 155.417907 0 0 0 58.192134-6.449867L439.880931 473.42024a162.441096 162.441096 0 0 0-6.25876 58.383241z" p-id="1324"></path><path d="M766.43531 513.93496c0-3.248822-0.238884-6.449867-0.238884-9.555358a110.221061 110.221061 0 0 1-45.244623 9.555358c-2.723277 0-5.20767 0-7.692063-0.238884l46.247935 46.48682a158.95339 158.95339 0 0 0 6.927635-46.247936z" p-id="1325"></path><path d="M595.776606 381.306583a116.814258 116.814258 0 0 1 7.692064-41.995801c-2.484393 0-4.777679-0.238884-7.692064-0.238884a157.281202 157.281202 0 0 0-46.009051 6.975412l46.486819 46.48682c-0.238884-3.774367-0.477768-7.500956-0.477768-11.227547z" p-id="1326"></path></svg>