<?xml version="1.0" standalone="no"?><!DOCTYPE svg PUBLIC "-//W3C//DTD SVG 1.1//EN" "http://www.w3.org/Graphics/SVG/1.1/DTD/svg11.dtd"><svg t="1642650756915" class="icon" viewBox="0 0 1024 1024" version="1.1" xmlns="http://www.w3.org/2000/svg" p-id="1770" xmlns:xlink="http://www.w3.org/1999/xlink" width="200" height="200"><defs><style type="text/css"></style></defs><path d="M775.001946 170.731243a21.69773 21.69773 0 0 1-10.738162-2.767567 534.528 534.528 0 0 0-260.151352-65.868108 534.472649 534.472649 0 0 0-260.151351 65.868108 23.441297 23.441297 0 0 1-22.472649-41.126054 594.390486 594.390486 0 0 1 564.307027-0.470487 23.635027 23.635027 0 0 1-10.793513 44.364108zM106.523676 415.993081a24.354595 24.354595 0 0 1-13.561081-4.206703 23.302919 23.302919 0 0 1-5.535136-32.712648 482.995892 482.995892 0 0 1 175.187027-152.76973 539.260541 539.260541 0 0 1 481.556757-0.470486 484.822486 484.822486 0 0 1 175.187027 151.828756 23.468973 23.468973 0 1 1-38.303135 27.094487 438.548757 438.548757 0 0 0-158.360216-137.354379 492.267243 492.267243 0 0 0-439.129946 0.470487 443.170595 443.170595 0 0 0-158.830703 138.378378 20.369297 20.369297 0 0 1-18.210594 9.797189z m292.089081 563.864216a21.919135 21.919135 0 0 1-16.356325-7.001946 472.25773 472.25773 0 0 1-94.01427-123.212108 414.692324 414.692324 0 0 1-49.041297-202.862702 258.712216 258.712216 0 0 1 264.413405-251.848649 258.712216 258.712216 0 0 1 264.413406 251.848649 23.35827 23.35827 0 1 1-46.716541 0 211.912649 211.912649 0 0 0-217.696865-205.076757 211.912649 211.912649 0 0 0-217.696865 205.076757 365.983135 365.983135 0 0 0 43.450811 179.891891 442.201946 442.201946 0 0 0 86.431135 113.055136 23.994811 23.994811 0 0 1 0 33.21081 25.627676 25.627676 0 0 1-17.297297 7.001946z m334.875675-86.431135a251.571892 251.571892 0 0 1-144.82681-41.513513 248.721297 248.721297 0 0 1-111.17319-205.076757 23.35827 23.35827 0 1 1 46.716541 0 200.925405 200.925405 0 0 0 90.637838 166.303135 204.8 204.8 0 0 0 118.645621 33.210811 308.722162 308.722162 0 0 0 48.598487-4.677189 23.468973 23.468973 0 0 1 7.942919 46.246054 319.017514 319.017514 0 0 1-56.541406 5.535135z m-93.931243 96.256a27.343568 27.343568 0 0 1-6.060973-0.940973 364.488649 364.488649 0 0 1-173.775567-98.11027 340.881297 340.881297 0 0 1-101.376-243.850378 140.869189 140.869189 0 0 1 143.913513-137.354379 140.869189 140.869189 0 0 1 143.913514 137.354379 97.418378 97.418378 0 0 0 194.338594 0c0-176.128-151.828757-319.072865-338.694919-319.072865a341.047351 341.047351 0 0 0-308.805189 188.194594 300.530162 300.530162 0 0 0-27.675676 130.795244 464.231784 464.231784 0 0 0 31.245838 168.738594 22.804757 22.804757 0 0 1-13.561081 29.88973 23.164541 23.164541 0 0 1-29.889729-13.561081 520.441081 520.441081 0 0 1-34.041082-184.984216 350.955243 350.955243 0 0 1 31.827027-151.385946 387.708541 387.708541 0 0 1 350.844541-214.901622c212.549189 0 385.411459 163.978378 385.411459 365.789405a143.913514 143.913514 0 0 1-287.827027 0 94.097297 94.097297 0 0 0-97.169297-90.637837 94.097297 94.097297 0 0 0-97.169297 90.637837 294.192432 294.192432 0 0 0 87.372108 210.694919 317.661405 317.661405 0 0 0 152.76973 86.431135 23.192216 23.192216 0 0 1 16.356324 28.505946 22.804757 22.804757 0 0 1-21.946811 17.740108z" p-id="1771"></path></svg>