<?xml version="1.0" standalone="no"?><!DOCTYPE svg PUBLIC "-//W3C//DTD SVG 1.1//EN" "http://www.w3.org/Graphics/SVG/1.1/DTD/svg11.dtd"><svg t="1657256108302" class="icon" viewBox="0 0 1024 1024" version="1.1" xmlns="http://www.w3.org/2000/svg" p-id="1822" xmlns:xlink="http://www.w3.org/1999/xlink" width="60" height="60"><defs><style type="text/css">html, * { user-select: text !important; }
@font-face { font-family: feedback-iconfont; src: url("//at.alicdn.com/t/font_1031158_u69w8yhxdu.woff2?t=1630033759944") format("woff2"), url("//at.alicdn.com/t/font_1031158_u69w8yhxdu.woff?t=1630033759944") format("woff"), url("//at.alicdn.com/t/font_1031158_u69w8yhxdu.ttf?t=1630033759944") format("truetype"); }
</style></defs><path d="M899.684892 1022.514617H124.886409c-13.254184 0-23.994644-10.74046-23.994644-23.994644V23.994644c0-13.254184 10.74046-23.994644 23.994644-23.994644h774.798483c13.254184 0 23.994644 10.74046 23.994644 23.994644v121.115822h-45.704084v-99.406382H146.595849v931.106449h731.379603V218.465521h45.704084v780.168712c0 13.139924-10.74046 23.880384-23.994644 23.880384z" p-id="1823"></path><path d="M478.864539 569.929926c-2.970765 0-5.941531-0.457041-8.912296-1.371122-11.654541-3.884847-19.538496-14.625307-19.538496-26.96541V420.706092h-60.10087c-10.85472 0-20.566838-6.055791-25.365767-15.767909s-3.770587-21.138139 2.742245-29.821914L524.568623 167.848248c7.769694-10.283419 21.138139-14.054006 33.135461-9.255077 11.997322 4.798929 19.081455 16.681991 17.710332 29.479134l-12.568623 114.03169H634.258424c10.74046 0 20.452578 5.941531 25.365767 15.539388 4.913189 9.597858 3.884847 21.023879-2.513725 29.593395L501.716581 558.389645c-5.48449 7.426914-13.939746 11.540281-22.852042 11.540281zM425.162241 375.002008h42.619058c15.653649 0 28.336532 12.682883 28.336532 28.336533v85.580897L599.980362 347.922339h-56.558804c-8.112475 0-15.767909-3.427806-21.138139-9.483598-5.37023-6.055791-7.998215-14.054006-7.084133-22.05222l7.769694-70.84133L425.162241 375.002008zM315.015398 876.375809h-73.583575c-12.568623 0-22.852042-10.283419-22.852042-22.852042s10.283419-22.852042 22.852042-22.852042h73.583575c12.568623 0 22.852042 10.283419 22.852042 22.852042s-10.283419 22.852042-22.852042 22.852042zM461.954028 876.375809h-73.583575c-12.568623 0-22.852042-10.283419-22.852042-22.852042s10.283419-22.852042 22.852042-22.852042h73.583575c12.568623 0 22.852042 10.283419 22.852042 22.852042s-10.283419 22.852042-22.852042 22.852042zM139.740237 707.384959h755.831287v45.704084H139.740237z" p-id="1824"></path></svg>